<svg width="37" height="47" viewBox="0 0 37 47" fill="none" xmlns="http://www.w3.org/2000/svg"><path d="M.648 47V.455h19.227c3.485 0 6.492.681 9.023 2.045 2.545 1.348 4.507 3.235 5.886 5.66 1.379 2.408 2.068 5.211 2.068 8.408 0 3.212-.704 6.023-2.113 8.432-1.394 2.394-3.387 4.25-5.978 5.568-2.59 1.318-5.666 1.977-9.227 1.977H7.67v-8.863h9.773c1.697 0 3.114-.296 4.25-.886 1.152-.591 2.023-1.417 2.614-2.478.59-1.076.886-2.326.886-3.75 0-1.44-.295-2.682-.886-3.727-.591-1.06-1.462-1.879-2.614-2.455-1.151-.575-2.568-.863-4.25-.863h-5.545V47H.648Z" fill="#4a4a4a"/></svg>